<svg id="svg" version="1.1" xmlns="http://www.w3.org/2000/svg" xmlns:xlink="http://www.w3.org/1999/xlink" width="400" height="400" viewBox="0, 0, 400,400"><g id="svgg"><path id="path0" d="M297.500 53.887 C 296.588 54.025,296.400 54.254,296.400 55.227 L 296.400 56.400 292.600 56.400 L 288.800 56.400 288.800 57.600 C 288.800 58.799,288.797 58.800,286.427 58.800 C 284.136 58.800,284.049 58.838,283.927 59.898 C 283.826 60.766,283.549 61.039,282.600 61.200 C 281.666 61.359,281.373 61.637,281.278 62.456 C 281.185 63.260,280.877 63.565,279.978 63.744 C 278.986 63.943,278.800 64.171,278.800 65.190 C 278.800 66.268,278.669 66.400,277.600 66.400 L 276.400 66.400 276.400 68.800 C 276.400 71.180,276.390 71.200,275.243 71.200 C 273.875 71.200,273.600 71.741,273.600 74.433 C 273.600 76.352,273.571 76.400,272.400 76.400 L 271.200 76.400 271.200 79.968 L 271.200 83.536 270.000 83.800 L 268.800 84.064 268.800 92.785 C 268.800 101.153,268.768 101.515,268.005 101.715 C 265.889 102.268,265.741 108.400,267.843 108.400 L 268.800 108.400 268.800 119.171 C 268.800 130.472,268.911 131.200,270.629 131.200 C 271.088 131.200,271.200 132.030,271.200 135.426 C 271.200 139.930,271.555 141.200,272.814 141.200 C 273.520 141.200,273.600 141.483,273.600 143.974 C 273.600 147.552,274.063 148.800,275.390 148.800 C 276.395 148.800,276.400 148.817,276.400 152.410 L 276.400 156.020 277.600 156.260 L 278.800 156.500 278.800 159.570 C 278.800 162.739,279.159 163.600,280.480 163.600 C 281.083 163.600,281.200 163.945,281.200 165.720 C 281.200 167.937,281.671 168.800,282.880 168.800 C 283.465 168.800,283.600 169.132,283.600 170.567 C 283.600 173.052,283.897 173.600,285.243 173.600 L 286.400 173.600 286.400 176.200 L 286.400 178.800 287.600 178.800 L 288.800 178.800 288.800 181.200 C 288.800 183.588,288.806 183.600,289.975 183.600 C 291.008 183.600,291.164 183.757,291.275 184.900 C 291.482 187.049,297.893 186.947,298.403 184.786 C 298.569 184.085,298.976 183.743,299.818 183.599 C 300.740 183.441,301.027 183.160,301.124 182.322 C 301.220 181.493,301.493 181.220,302.324 181.124 C 303.162 181.027,303.428 180.757,303.527 179.900 C 303.627 179.024,303.859 178.800,304.661 178.800 C 305.402 178.800,305.783 178.498,306.098 177.664 C 306.347 177.005,307.005 176.347,307.664 176.098 C 308.498 175.783,308.800 175.402,308.800 174.661 C 308.800 173.859,309.024 173.627,309.900 173.527 C 310.757 173.428,311.027 173.162,311.124 172.324 C 311.220 171.493,311.493 171.220,312.324 171.124 C 313.149 171.029,313.428 170.754,313.522 169.946 C 313.614 169.153,313.924 168.835,314.768 168.666 C 315.626 168.495,315.949 168.153,316.136 167.221 C 316.327 166.265,316.589 166.000,317.343 166.000 C 318.419 166.000,318.786 165.166,318.795 162.700 C 318.800 161.301,318.881 161.200,320.000 161.200 C 321.067 161.200,321.200 161.067,321.200 160.000 C 321.200 158.933,321.333 158.800,322.400 158.800 C 323.461 158.800,323.600 158.664,323.600 157.625 C 323.600 156.592,323.757 156.436,324.900 156.325 C 326.037 156.216,326.215 156.040,326.324 154.924 C 326.425 153.875,326.638 153.627,327.524 153.524 C 328.362 153.427,328.628 153.157,328.727 152.300 C 328.810 151.572,329.087 151.200,329.547 151.200 C 330.704 151.200,331.200 150.336,331.200 148.320 C 331.200 146.453,331.233 146.400,332.400 146.400 C 333.505 146.400,333.600 146.289,333.600 145.000 C 333.600 143.723,333.701 143.600,334.757 143.600 C 336.100 143.600,336.400 143.051,336.400 140.594 C 336.400 138.993,336.488 138.843,337.498 138.727 C 338.362 138.627,338.639 138.348,338.799 137.418 C 338.944 136.570,339.284 136.169,340.001 136.001 C 340.901 135.790,341.012 135.544,341.119 133.508 C 341.231 131.386,341.304 131.242,342.319 131.125 C 343.337 131.007,343.407 130.867,343.520 128.700 C 343.621 126.759,343.757 126.400,344.391 126.400 C 345.696 126.400,346.400 125.283,346.400 123.215 C 346.400 121.518,346.514 121.258,347.352 121.048 C 348.505 120.758,348.787 119.835,348.795 116.327 C 348.800 113.709,348.823 113.650,349.900 113.527 L 351.000 113.400 351.112 108.500 L 351.225 103.600 352.412 103.600 L 353.600 103.600 353.600 93.827 L 353.600 84.053 352.500 83.927 C 351.446 83.805,351.395 83.696,351.281 81.300 C 351.163 78.825,351.150 78.800,349.981 78.800 C 348.815 78.800,348.800 78.772,348.800 76.579 C 348.800 74.481,348.735 74.336,347.624 73.948 C 346.777 73.653,346.412 73.238,346.324 72.469 C 346.222 71.587,345.973 71.378,344.900 71.275 C 343.757 71.164,343.600 71.008,343.600 69.975 C 343.600 68.936,343.461 68.800,342.400 68.800 C 341.333 68.800,341.200 68.667,341.200 67.600 C 341.200 66.539,341.064 66.400,340.027 66.400 C 339.051 66.400,338.832 66.219,338.727 65.323 C 338.626 64.469,338.310 64.172,337.200 63.888 C 336.430 63.690,335.494 63.230,335.119 62.864 C 333.715 61.494,333.207 61.200,332.243 61.200 C 331.460 61.200,331.227 60.970,331.127 60.100 C 331.005 59.046,330.896 58.995,328.500 58.881 C 327.125 58.815,326.000 58.625,326.000 58.457 C 326.000 57.045,324.811 56.598,320.532 56.400 C 316.214 56.201,316.200 56.197,316.078 55.151 C 315.972 54.234,315.727 54.071,314.123 53.851 C 312.159 53.582,299.330 53.609,297.500 53.887 M313.854 74.700 C 314.231 76.240,314.598 76.387,318.073 76.394 C 321.127 76.400,321.148 76.407,321.273 77.500 C 321.395 78.554,321.504 78.605,323.900 78.719 C 326.375 78.837,326.400 78.850,326.400 80.019 C 326.400 81.065,326.538 81.200,327.600 81.200 C 328.667 81.200,328.800 81.333,328.800 82.400 C 328.800 83.462,328.935 83.600,329.981 83.600 C 331.150 83.600,331.163 83.625,331.281 86.100 C 331.394 88.464,331.457 88.607,332.448 88.722 C 333.481 88.841,333.498 88.896,333.700 92.722 C 333.940 97.245,334.154 97.923,335.444 98.247 C 336.952 98.625,336.836 101.097,335.302 101.273 C 334.024 101.421,333.722 102.336,333.647 106.300 C 333.603 108.657,333.545 108.800,332.643 108.800 C 331.512 108.800,331.200 109.450,331.200 111.806 C 331.200 113.408,331.112 113.557,330.100 113.673 C 329.183 113.779,328.979 114.017,328.875 115.100 C 328.764 116.243,328.608 116.400,327.575 116.400 C 326.540 116.400,326.400 116.541,326.400 117.581 C 326.400 118.750,326.375 118.763,323.900 118.881 C 321.504 118.995,321.395 119.046,321.273 120.100 L 321.147 121.200 316.473 121.240 C 311.015 121.286,309.941 121.510,309.405 122.713 C 308.920 123.803,308.531 123.842,308.211 122.833 C 307.858 121.722,305.934 121.200,302.190 121.200 L 298.900 121.200 298.660 120.000 C 298.458 118.991,298.231 118.800,297.237 118.800 C 296.243 118.800,296.033 118.624,295.927 117.700 C 295.807 116.659,295.677 116.594,293.500 116.480 L 291.200 116.360 291.200 114.260 C 291.200 112.061,290.727 111.200,289.520 111.200 C 288.945 111.200,288.800 110.873,288.800 109.574 C 288.800 107.554,288.213 106.400,287.186 106.400 C 286.429 106.400,286.400 106.081,286.400 97.627 L 286.400 88.853 287.500 88.727 C 288.554 88.605,288.605 88.496,288.719 86.100 C 288.837 83.625,288.850 83.600,290.019 83.600 C 291.065 83.600,291.200 83.462,291.200 82.400 C 291.200 81.333,291.333 81.200,292.400 81.200 C 293.467 81.200,293.600 81.067,293.600 80.000 C 293.600 78.818,293.631 78.800,295.720 78.800 C 297.937 78.800,298.800 78.329,298.800 77.120 C 298.800 76.516,299.169 76.392,301.100 76.353 C 304.863 76.275,305.781 75.961,305.927 74.698 L 306.053 73.600 309.819 73.600 L 313.585 73.600 313.854 74.700 M213.196 261.700 C 211.327 264.521,213.342 294.018,215.459 294.822 C 217.507 295.601,234.916 295.288,236.813 294.439 L 238.514 293.677 237.481 292.645 L 236.449 291.612 236.365 278.193 C 236.319 270.812,236.125 264.677,235.934 264.559 C 235.743 264.441,235.691 264.177,235.817 263.972 C 235.944 263.768,235.497 263.600,234.824 263.600 C 234.151 263.600,233.600 263.445,233.600 263.255 C 233.600 263.065,233.125 262.435,232.545 261.855 L 231.491 260.800 222.642 260.800 C 213.908 260.800,213.785 260.812,213.196 261.700 M236.005 301.182 C 235.208 304.143,235.246 304.128,226.000 305.000 C 216.801 305.867,216.502 305.927,215.364 307.138 L 214.367 308.200 214.636 314.800 C 214.814 319.165,215.094 321.773,215.463 322.500 L 216.021 323.600 227.019 323.600 L 238.017 323.600 238.487 322.568 C 238.835 321.805,239.189 321.581,239.848 321.707 C 240.468 321.826,240.798 321.652,240.932 321.138 C 241.038 320.732,240.962 320.500,240.763 320.623 C 240.563 320.746,240.400 320.589,240.400 320.273 C 240.400 319.957,240.095 319.451,239.723 319.149 C 239.147 318.681,239.097 318.683,239.385 319.162 C 239.615 319.543,239.575 319.632,239.262 319.438 C 238.934 319.235,238.800 316.394,238.800 309.619 C 238.800 301.295,238.720 300.055,238.167 299.843 C 236.883 299.350,236.421 299.636,236.005 301.182 " stroke="none" fill="#f92e04" fill-rule="evenodd"></path><path id="path1" d="M316.400 182.573 C 316.400 183.773,316.261 183.963,315.305 184.073 C 313.930 184.232,313.656 185.510,313.623 191.900 C 313.600 196.368,313.593 196.400,312.647 196.400 C 311.363 196.400,311.212 197.142,311.205 203.473 L 311.200 208.747 310.100 208.873 L 309.000 209.000 308.890 215.074 L 308.779 221.149 307.690 221.274 L 306.600 221.400 306.491 228.900 L 306.382 236.400 316.391 236.400 C 326.174 236.400,326.400 236.418,326.400 237.210 C 326.400 238.711,327.784 238.800,351.162 238.800 L 373.872 238.800 374.301 239.743 C 374.964 241.198,385.034 242.032,385.864 240.700 C 387.230 238.509,386.164 229.509,384.511 229.274 C 383.654 229.152,383.620 228.971,383.512 224.074 L 383.400 219.000 382.300 218.873 L 381.200 218.747 381.200 213.202 C 381.200 207.471,380.912 206.400,379.371 206.400 C 378.928 206.400,378.800 205.741,378.800 203.457 L 378.800 200.514 376.341 200.257 C 367.980 199.383,367.221 199.806,366.905 205.507 C 366.654 210.036,367.182 210.657,371.709 211.165 C 373.375 211.352,375.428 211.841,376.269 212.252 L 377.800 213.000 377.761 219.012 C 377.690 229.932,377.636 230.000,368.994 230.000 C 362.316 230.000,361.679 229.788,361.934 227.644 C 362.139 225.918,362.983 225.600,367.175 225.667 C 372.448 225.752,373.600 224.857,373.600 220.675 C 373.600 217.515,371.975 215.602,369.283 215.591 C 363.195 215.568,362.303 214.011,362.476 203.719 C 362.622 194.990,362.710 194.806,366.744 194.792 C 374.196 194.765,376.400 193.435,376.400 188.965 C 376.400 184.913,376.097 184.000,374.750 184.000 C 373.702 184.000,373.600 183.875,373.600 182.600 L 373.600 181.200 345.000 181.200 L 316.400 181.200 316.400 182.573 M235.323 190.815 C 233.623 191.478,233.070 193.034,232.358 199.153 C 231.984 202.369,231.398 207.070,231.056 209.600 C 229.936 217.873,229.517 226.695,230.174 228.142 C 230.488 228.834,230.805 229.760,230.878 230.200 C 231.006 230.972,231.363 231.004,241.276 231.107 L 251.541 231.213 252.014 228.931 C 252.524 226.477,252.328 223.103,251.426 218.794 C 251.127 217.363,250.665 213.763,250.400 210.796 C 250.135 207.828,249.650 203.960,249.322 202.200 C 248.994 200.440,248.499 197.784,248.222 196.297 C 247.556 192.723,247.005 192.172,243.792 191.872 C 242.369 191.739,240.888 191.469,240.502 191.271 C 239.409 190.711,236.295 190.437,235.323 190.815 M332.633 195.021 C 333.861 195.178,334.654 195.627,335.833 196.838 L 337.400 198.447 337.301 212.276 C 337.169 230.646,337.295 230.383,328.589 230.394 C 324.757 230.399,323.586 230.266,322.835 229.740 L 321.892 229.079 322.080 212.770 C 322.307 193.061,321.880 194.554,327.244 194.707 C 329.310 194.766,331.735 194.907,332.633 195.021 M352.417 195.209 C 354.024 196.069,354.354 197.675,355.208 208.781 C 355.436 211.740,355.963 216.150,356.380 218.581 C 358.086 228.535,357.849 230.654,355.085 230.131 C 353.077 229.750,352.938 229.461,352.671 225.101 C 352.317 219.315,352.097 218.471,350.766 217.783 C 347.552 216.121,346.359 217.978,345.641 225.765 C 345.277 229.707,344.714 230.584,342.835 230.136 C 340.584 229.600,340.440 228.998,341.371 224.040 C 341.685 222.368,342.140 217.490,342.381 213.200 C 343.403 195.060,343.492 194.800,348.685 194.800 C 350.317 194.800,351.997 194.984,352.417 195.209 M74.412 262.248 L 73.141 263.695 73.384 269.148 C 73.518 272.146,73.796 276.310,74.003 278.400 C 74.210 280.490,74.492 284.844,74.630 288.074 C 74.832 292.813,75.009 294.065,75.543 294.548 C 76.252 295.190,97.365 295.640,98.345 295.034 C 98.830 294.734,99.021 280.642,98.557 279.433 C 98.424 279.085,97.884 278.800,97.357 278.800 L 96.400 278.800 96.400 271.275 L 96.400 263.750 95.300 262.729 C 93.477 261.038,92.031 260.800,83.582 260.800 L 75.683 260.800 74.412 262.248 M97.000 302.322 C 96.560 302.419,95.691 302.925,95.069 303.449 C 94.447 303.972,93.640 304.400,93.275 304.400 C 91.228 304.400,79.136 305.695,77.684 306.070 C 75.166 306.720,75.042 307.174,75.338 314.686 C 75.714 324.229,74.765 323.650,89.800 323.507 L 101.000 323.400 101.000 315.000 L 101.000 306.600 99.900 306.473 C 98.869 306.355,98.800 306.225,98.800 304.416 C 98.800 302.408,98.453 302.005,97.000 302.322 " stroke="none" fill="#163af1" fill-rule="evenodd"></path><path id="path2" d="M30.500 121.989 C 29.785 122.428,29.200 122.963,29.200 123.176 C 29.200 123.389,27.985 123.617,26.500 123.682 L 23.800 123.800 23.707 177.419 L 23.614 231.038 25.001 230.876 C 26.221 230.733,26.439 230.850,26.819 231.849 C 27.056 232.473,27.452 233.109,27.699 233.261 C 28.135 233.531,34.592 233.319,36.200 232.983 C 38.788 232.441,39.362 224.330,39.837 181.600 C 40.053 162.214,40.098 161.361,40.979 160.169 C 41.514 159.446,41.598 159.514,42.405 161.328 C 42.876 162.389,43.698 163.899,44.231 164.684 C 44.764 165.469,45.200 166.421,45.200 166.800 C 45.200 167.179,45.673 168.185,46.250 169.036 C 46.828 169.887,47.544 171.274,47.842 172.118 C 48.139 172.962,48.713 174.136,49.117 174.726 C 49.521 175.317,50.093 176.565,50.389 177.500 C 50.686 178.435,51.055 179.200,51.210 179.200 C 51.365 179.200,51.814 180.055,52.209 181.100 C 52.604 182.145,53.352 183.630,53.872 184.400 C 54.392 185.170,55.010 186.520,55.244 187.400 C 55.479 188.280,55.993 189.360,56.386 189.800 C 56.778 190.240,57.398 191.518,57.762 192.639 C 58.569 195.127,60.677 195.894,65.575 195.483 C 69.418 195.161,70.644 193.922,72.408 188.576 C 72.684 187.739,73.425 186.242,74.055 185.249 C 74.685 184.256,75.200 183.143,75.200 182.776 C 75.200 182.408,75.603 181.595,76.096 180.969 C 76.588 180.343,77.295 178.969,77.665 177.917 C 78.036 176.865,78.618 175.725,78.959 175.384 C 79.300 175.043,79.764 174.076,79.991 173.234 C 80.217 172.393,80.736 171.276,81.144 170.752 C 81.552 170.228,82.131 169.080,82.430 168.200 C 83.368 165.439,83.744 165.054,84.590 165.989 C 85.511 167.007,85.489 166.468,86.007 200.200 C 86.529 234.153,86.229 232.362,91.400 232.390 C 92.940 232.398,95.984 232.674,98.165 233.002 C 104.227 233.916,103.600 234.518,103.600 227.779 L 103.600 221.958 102.400 221.540 L 101.200 221.122 101.160 188.861 C 101.120 156.086,101.062 154.558,99.877 154.655 C 99.509 154.685,99.307 154.550,99.428 154.355 C 99.549 154.160,99.459 154.000,99.228 154.000 C 98.945 154.000,98.775 148.729,98.704 137.700 L 98.600 121.400 90.000 121.400 L 81.400 121.400 81.281 123.900 C 81.163 126.375,81.150 126.400,79.981 126.400 C 78.586 126.400,78.396 127.467,79.422 129.525 C 80.364 131.412,80.292 135.239,79.283 136.948 C 78.828 137.721,78.146 139.489,77.769 140.877 C 77.392 142.265,76.768 143.940,76.382 144.600 C 75.996 145.260,75.396 146.926,75.048 148.302 C 74.700 149.679,74.141 151.223,73.806 151.734 C 73.471 152.245,72.913 153.639,72.565 154.832 C 72.217 156.024,71.709 157.360,71.436 157.800 C 71.163 158.240,70.703 159.500,70.413 160.600 C 70.124 161.700,69.493 163.410,69.011 164.400 C 68.529 165.390,68.005 166.740,67.846 167.400 C 67.686 168.060,67.375 169.289,67.154 170.130 C 66.464 172.763,62.896 173.497,62.813 171.023 C 62.800 170.636,59.087 163.070,58.385 162.000 C 58.169 161.670,57.705 160.770,57.356 160.000 C 57.006 159.230,56.032 157.340,55.190 155.800 C 54.348 154.260,53.286 152.190,52.830 151.200 C 52.374 150.210,51.816 149.130,51.591 148.800 C 51.365 148.470,50.729 147.236,50.177 146.058 C 49.625 144.880,48.923 143.666,48.619 143.361 C 48.314 143.057,47.843 142.131,47.573 141.304 C 47.302 140.477,46.658 139.173,46.141 138.407 C 45.623 137.641,45.200 136.720,45.200 136.361 C 45.200 136.002,44.873 135.279,44.473 134.754 C 43.078 132.924,42.699 131.431,43.200 129.745 C 44.024 126.972,43.599 124.223,42.324 124.076 C 41.438 123.973,41.225 123.725,41.124 122.676 L 41.000 121.400 36.400 121.295 C 32.387 121.203,31.634 121.291,30.500 121.989 M116.667 121.467 C 116.520 121.613,116.400 122.139,116.400 122.635 C 116.400 123.304,116.102 123.602,115.241 123.791 C 113.629 124.145,113.612 124.289,113.605 137.405 C 113.600 149.002,113.599 149.011,112.713 149.405 C 111.358 150.009,111.283 150.818,111.240 165.300 C 111.202 178.019,111.158 178.800,110.480 178.800 C 108.842 178.800,108.800 179.183,108.800 194.253 L 108.800 208.747 107.700 208.873 L 106.600 209.000 106.494 221.300 L 106.388 233.600 114.994 233.600 L 123.600 233.600 123.600 227.400 L 123.600 221.200 124.753 221.200 C 126.355 221.200,126.388 220.956,126.395 209.127 L 126.400 198.853 127.500 198.727 C 128.554 198.605,128.605 198.496,128.719 196.100 L 128.838 193.600 132.629 193.600 C 136.269 193.600,136.434 193.639,136.787 194.566 C 136.989 195.097,137.524 195.649,137.977 195.793 C 138.760 196.041,138.800 196.349,138.800 202.062 L 138.800 208.069 140.000 208.522 L 141.200 208.975 141.200 218.408 C 141.200 228.160,141.302 228.800,142.860 228.800 C 143.432 228.800,143.582 229.222,143.680 231.100 L 143.800 233.400 152.500 233.508 L 161.200 233.616 161.200 227.598 L 161.200 221.580 160.000 221.340 L 158.800 221.100 158.800 211.600 C 158.800 200.784,158.675 199.708,157.343 199.101 L 156.400 198.672 156.360 189.836 C 156.314 179.723,156.212 179.052,154.691 178.874 L 153.614 178.748 153.507 168.874 L 153.400 159.000 152.300 158.873 L 151.200 158.747 151.200 148.202 C 151.200 137.144,151.085 136.400,149.371 136.400 C 148.901 136.400,148.800 135.312,148.800 130.243 C 148.800 123.700,148.770 123.600,146.795 123.600 C 146.334 123.600,146.008 123.263,145.928 122.703 C 145.838 122.074,145.440 121.729,144.600 121.550 C 142.985 121.206,117.004 121.129,116.667 121.467 M175.200 121.556 C 174.586 121.726,174.151 122.174,174.072 122.716 C 173.948 123.578,173.810 123.600,168.472 123.605 C 165.462 123.608,162.595 123.719,162.100 123.852 L 161.200 124.093 161.202 133.347 C 161.205 143.078,161.503 145.388,162.812 145.804 C 163.587 146.050,163.600 146.579,163.600 178.967 C 163.600 217.060,163.636 217.915,165.262 218.482 L 166.400 218.878 166.400 226.959 C 166.400 236.917,165.568 236.000,174.604 236.000 C 184.577 236.000,183.378 238.929,183.511 214.232 L 183.621 193.600 189.178 193.600 C 195.459 193.600,196.000 193.487,196.000 192.176 C 196.000 191.305,196.178 191.230,198.500 191.119 C 200.896 191.005,201.005 190.954,201.127 189.900 C 201.233 188.979,201.444 188.800,202.427 188.800 C 203.143 188.800,203.600 188.590,203.600 188.262 C 203.600 187.398,204.971 186.400,206.158 186.400 C 207.789 186.400,208.800 185.706,208.800 184.586 C 208.800 183.813,209.006 183.600,209.757 183.600 C 210.987 183.600,211.200 182.980,211.200 179.399 L 211.200 176.464 212.400 176.200 L 213.600 175.936 213.600 156.168 L 213.600 136.400 212.400 136.400 L 211.200 136.400 211.200 133.080 C 211.200 129.688,210.862 128.800,209.570 128.800 C 209.146 128.800,208.812 128.360,208.660 127.600 C 208.425 126.426,208.368 126.400,206.010 126.400 C 203.623 126.400,203.600 126.389,203.600 125.252 C 203.600 123.869,202.583 123.611,197.100 123.604 C 193.889 123.600,193.600 123.535,193.600 122.814 C 193.600 122.382,193.252 121.842,192.826 121.614 C 191.964 121.153,176.839 121.103,175.200 121.556 M223.949 122.375 C 223.662 123.198,223.189 123.627,222.370 123.807 L 221.200 124.064 221.200 136.424 L 221.200 148.785 220.238 149.026 C 218.839 149.377,218.811 149.687,218.805 164.873 L 218.800 178.747 217.700 178.873 L 216.600 179.000 216.495 192.744 L 216.389 206.489 215.226 207.576 C 213.633 209.064,213.552 209.846,213.684 222.400 L 213.800 233.400 222.556 233.508 L 231.312 233.616 231.061 231.479 C 230.923 230.304,230.538 228.797,230.205 228.130 C 229.511 226.739,229.909 218.075,231.056 209.600 C 231.398 207.070,231.984 202.369,232.358 199.153 C 233.402 190.179,234.168 189.563,241.800 191.562 C 242.680 191.792,244.047 191.985,244.838 191.990 C 247.396 192.007,247.636 192.572,249.358 202.600 C 249.697 204.580,250.241 208.720,250.565 211.800 C 250.890 214.880,251.466 219.279,251.846 221.576 C 252.439 225.161,252.465 226.123,252.031 228.376 C 251.753 229.819,251.433 231.585,251.319 232.300 L 251.112 233.600 259.956 233.600 L 268.800 233.600 268.800 228.029 C 268.800 222.296,268.511 221.200,267.002 221.200 C 266.565 221.200,266.436 219.258,266.330 211.100 C 266.193 200.495,265.983 199.200,264.393 199.200 C 263.644 199.200,263.610 198.806,263.507 189.100 L 263.400 179.000 262.300 178.873 L 261.200 178.747 261.200 169.253 C 261.200 159.442,261.098 158.800,259.545 158.800 C 258.905 158.800,258.839 157.967,258.725 148.461 C 258.596 137.826,258.377 136.416,256.936 136.969 C 256.502 137.136,256.400 135.975,256.400 130.867 C 256.400 124.221,256.243 123.600,254.563 123.600 C 253.975 123.600,253.609 123.289,253.449 122.653 C 253.110 121.301,252.089 121.209,237.279 121.204 L 224.358 121.200 223.949 122.375 M21.204 270.700 C 21.209 294.838,21.247 295.496,22.649 295.848 L 23.592 296.085 23.696 314.742 L 23.800 333.400 31.300 333.509 L 38.800 333.618 38.800 318.609 L 38.800 303.600 42.410 303.600 L 46.020 303.600 46.260 302.400 C 46.494 301.230,46.559 301.200,48.850 301.200 C 50.150 301.200,51.200 301.021,51.200 300.800 C 51.200 300.580,51.464 300.400,51.786 300.400 C 52.108 300.400,52.565 300.040,52.800 299.600 C 53.070 299.096,53.638 298.800,54.334 298.800 C 55.587 298.800,56.400 298.158,56.400 297.170 C 56.400 296.746,56.840 296.412,57.600 296.260 C 58.616 296.057,58.800 295.834,58.800 294.810 C 58.800 294.028,59.002 293.600,59.371 293.600 C 59.686 293.600,60.226 293.317,60.571 292.971 C 61.143 292.400,61.200 293.936,61.204 309.871 C 61.209 329.331,61.274 330.269,62.658 330.899 C 63.325 331.203,63.600 331.660,63.600 332.464 L 63.600 333.600 82.400 333.600 L 101.200 333.600 101.200 328.500 L 101.201 323.400 89.913 323.512 C 74.758 323.663,75.715 324.243,75.338 314.686 C 75.042 307.174,75.166 306.720,77.684 306.070 C 79.136 305.695,91.228 304.400,93.275 304.400 C 93.640 304.400,94.488 303.938,95.158 303.374 C 95.839 302.801,96.914 302.332,97.589 302.313 L 98.800 302.278 98.800 298.516 C 98.800 295.806,98.673 294.831,98.345 295.034 C 97.365 295.640,76.252 295.190,75.543 294.548 C 75.009 294.065,74.832 292.813,74.630 288.074 C 74.492 284.844,74.210 280.490,74.003 278.400 C 73.796 276.310,73.518 272.146,73.384 269.148 L 73.141 263.695 74.412 262.248 L 75.683 260.800 83.582 260.800 C 91.950 260.800,93.481 261.044,95.222 262.654 C 96.067 263.437,96.671 263.600,98.722 263.600 L 101.200 263.600 101.205 283.900 C 101.211 305.896,101.218 306.000,102.641 306.000 L 103.589 306.000 103.695 319.700 L 103.800 333.400 111.200 333.400 L 118.600 333.400 118.800 326.800 C 118.910 323.170,119.146 320.425,119.324 320.700 C 119.502 320.975,119.997 321.200,120.424 321.200 C 121.053 321.200,121.201 321.484,121.205 322.700 C 121.214 325.158,121.582 326.000,122.647 326.000 C 123.501 326.000,123.601 326.177,123.605 327.700 C 123.614 330.506,123.940 331.200,125.247 331.200 C 126.389 331.200,126.400 331.222,126.400 333.592 C 126.400 336.398,126.596 336.519,130.812 336.321 L 133.400 336.200 133.525 334.900 L 133.651 333.600 136.549 333.600 C 140.174 333.600,140.905 333.143,140.729 330.984 C 140.624 329.694,140.433 329.376,139.700 329.272 C 138.849 329.151,138.800 328.964,138.800 325.801 C 138.800 322.393,138.331 321.200,136.991 321.200 C 136.601 321.200,136.405 320.530,136.320 318.900 C 136.201 316.626,136.185 316.599,134.900 316.475 L 133.600 316.349 133.600 312.765 L 133.600 309.180 132.400 308.940 C 131.232 308.706,131.200 308.638,131.200 306.377 C 131.200 304.149,131.155 304.046,130.100 303.887 L 129.000 303.720 130.100 303.660 C 131.042 303.609,131.200 303.428,131.200 302.400 C 131.200 301.333,131.333 301.200,132.400 301.200 C 133.461 301.200,133.600 301.064,133.600 300.025 C 133.600 298.992,133.757 298.836,134.900 298.725 C 135.983 298.621,136.221 298.417,136.327 297.500 C 136.410 296.772,136.687 296.400,137.147 296.400 C 138.784 296.400,138.800 296.206,138.800 275.920 L 138.800 256.400 137.600 256.400 C 136.614 256.400,136.400 256.236,136.400 255.480 C 136.400 254.316,135.694 253.600,134.547 253.600 C 133.869 253.600,133.623 253.334,133.527 252.500 L 133.400 251.400 109.700 251.297 L 86.000 251.194 86.000 250.240 C 86.000 249.715,85.715 249.176,85.367 249.043 C 84.396 248.670,66.400 248.755,66.400 249.132 C 66.400 249.314,66.013 249.449,65.540 249.432 C 65.068 249.414,64.588 249.670,64.475 250.000 C 64.293 250.533,64.355 250.533,65.035 250.000 C 65.741 249.446,65.758 249.453,65.255 250.096 C 64.955 250.478,64.550 250.693,64.355 250.572 C 64.160 250.451,64.000 250.543,64.000 250.776 C 64.000 251.009,63.370 251.200,62.600 251.200 L 61.200 251.200 61.200 253.800 L 61.200 256.400 60.000 256.400 C 58.818 256.400,58.800 256.369,58.800 254.280 C 58.800 251.630,58.370 251.200,55.720 251.200 C 53.631 251.200,53.600 251.182,53.600 250.000 L 53.600 248.800 37.400 248.800 L 21.200 248.800 21.204 270.700 M188.059 249.253 C 187.021 249.556,186.763 249.815,186.916 250.401 C 187.107 251.131,186.669 251.159,174.467 251.189 C 167.511 251.206,161.675 251.365,161.498 251.542 C 161.070 251.970,161.304 314.005,161.737 314.885 C 161.922 315.261,162.417 315.679,162.837 315.812 C 163.557 316.040,163.600 316.547,163.600 324.827 L 163.600 333.600 171.200 333.600 L 178.800 333.600 178.800 318.600 L 178.800 303.600 185.000 303.600 L 191.200 303.600 191.200 297.400 L 191.200 291.200 185.025 291.200 L 178.849 291.200 178.581 289.413 C 178.305 287.572,177.551 286.536,176.818 286.989 C 176.532 287.166,176.400 283.962,176.400 276.824 L 176.400 266.400 187.900 266.395 C 194.225 266.392,199.805 266.281,200.300 266.148 L 201.200 265.907 201.200 299.753 L 201.200 333.600 221.200 333.600 L 241.200 333.600 241.225 328.900 C 241.243 325.679,241.365 324.483,241.612 325.100 C 241.821 325.619,242.318 326.000,242.787 326.000 C 243.547 326.000,243.600 326.247,243.600 329.800 L 243.600 333.600 250.000 333.600 L 256.400 333.600 256.425 324.900 C 256.442 319.052,256.574 316.507,256.826 317.138 C 257.033 317.653,257.562 318.169,258.001 318.284 C 258.554 318.429,258.800 318.830,258.800 319.587 C 258.800 321.311,259.579 323.101,260.425 323.322 C 261.062 323.489,261.200 323.883,261.200 325.534 C 261.200 327.543,261.879 328.800,262.964 328.800 C 263.272 328.800,263.614 329.702,263.835 331.100 C 264.167 333.191,264.298 333.411,265.276 333.524 C 266.162 333.627,266.375 333.875,266.476 334.924 C 266.600 336.200,266.600 336.200,269.188 336.321 C 272.879 336.495,273.600 336.245,273.600 334.792 L 273.600 333.600 276.200 333.600 C 278.297 333.600,278.800 333.478,278.800 332.971 C 278.800 332.401,278.858 332.401,279.425 332.968 C 279.973 333.516,282.142 333.593,296.825 333.591 L 313.600 333.588 313.600 328.594 L 313.600 323.600 314.757 323.600 C 316.363 323.600,316.400 323.390,316.400 314.195 C 316.400 306.104,316.405 306.055,317.284 305.928 C 317.843 305.847,318.252 305.433,318.399 304.800 C 318.755 303.268,321.200 303.089,321.200 304.595 C 321.200 305.398,321.479 305.739,322.400 306.060 L 323.600 306.478 323.604 309.739 C 323.611 314.840,323.884 315.911,325.249 316.211 L 326.400 316.464 326.400 325.035 L 326.400 333.606 351.300 333.503 L 376.200 333.400 376.327 332.300 C 376.433 331.379,376.644 331.200,377.627 331.200 C 378.664 331.200,378.800 331.061,378.800 330.000 C 378.800 328.933,378.933 328.800,380.000 328.800 L 381.200 328.800 381.200 310.000 L 381.200 291.200 380.000 291.200 C 378.939 291.200,378.800 291.064,378.800 290.025 C 378.800 288.992,378.643 288.836,377.500 288.725 C 376.417 288.621,376.179 288.417,376.073 287.500 L 375.947 286.400 367.400 286.400 L 358.853 286.400 358.727 285.300 C 358.627 284.436,358.364 284.173,357.500 284.073 L 356.400 283.947 356.400 277.600 L 356.400 271.253 357.500 271.127 C 358.340 271.030,358.628 270.759,358.719 269.981 C 358.801 269.274,359.200 268.824,360.019 268.515 C 360.803 268.219,361.200 267.791,361.200 267.242 C 361.200 266.430,361.390 266.412,371.100 266.307 L 381.000 266.200 381.000 257.600 L 381.000 249.000 370.400 248.880 C 358.942 248.751,356.556 249.023,356.920 250.414 C 357.029 250.831,357.001 251.157,356.859 251.139 C 356.717 251.120,354.305 251.127,351.500 251.153 L 346.400 251.200 346.400 252.400 C 346.400 253.386,346.236 253.600,345.480 253.600 C 344.071 253.600,343.600 254.365,343.600 256.653 C 343.600 258.640,343.544 258.753,342.500 258.873 L 341.400 259.000 341.289 274.200 C 341.165 291.077,341.175 291.200,342.608 291.200 C 343.519 291.200,343.600 291.349,343.600 293.026 C 343.600 295.359,344.160 296.400,345.414 296.400 C 346.243 296.400,346.400 296.591,346.400 297.600 C 346.400 298.661,346.536 298.800,347.573 298.800 C 348.556 298.800,348.767 298.979,348.873 299.900 L 349.000 301.000 357.680 301.108 L 366.361 301.215 366.480 303.508 C 366.594 305.677,366.659 305.807,367.700 305.927 L 368.800 306.053 368.800 311.227 L 368.800 316.400 367.600 316.400 C 366.533 316.400,366.400 316.533,366.400 317.600 L 366.400 318.800 353.827 318.800 L 341.253 318.800 341.127 317.700 C 341.027 316.836,340.764 316.573,339.900 316.473 L 338.800 316.347 338.800 306.199 C 338.800 295.631,338.587 294.000,337.210 294.000 C 336.423 294.000,336.399 293.760,336.377 285.700 C 336.348 275.400,336.181 274.245,334.695 274.073 L 333.600 273.947 333.600 264.000 L 333.600 254.053 332.500 253.927 C 331.583 253.821,331.379 253.583,331.275 252.500 L 331.149 251.200 318.775 251.200 L 306.400 251.200 306.400 257.600 C 306.400 263.594,306.352 264.000,305.649 264.000 C 303.875 264.000,303.807 264.536,303.665 279.661 L 303.531 294.000 302.608 294.000 C 301.225 294.000,301.200 294.256,301.200 308.233 C 301.200 320.453,301.159 321.200,300.480 321.200 C 300.084 321.200,299.544 321.416,299.280 321.680 C 298.907 322.053,298.800 314.375,298.800 287.129 C 298.800 257.858,298.709 252.023,298.249 251.641 C 297.865 251.322,295.222 251.216,289.549 251.292 L 281.400 251.400 281.298 288.938 C 281.197 326.075,281.187 326.478,280.397 326.685 C 279.937 326.805,279.445 327.424,279.235 328.147 C 278.899 329.308,278.870 329.249,278.836 327.333 C 278.789 324.632,278.512 324.000,277.376 324.000 C 276.505 324.000,276.430 323.822,276.319 321.500 C 276.200 319.000,276.200 319.000,274.900 318.875 L 273.600 318.749 273.600 315.340 L 273.600 311.931 272.400 311.478 C 271.257 311.046,271.200 310.914,271.200 308.712 C 271.200 306.410,271.195 306.400,270.000 306.400 C 268.895 306.400,268.800 306.289,268.800 305.000 C 268.800 303.711,268.895 303.600,270.000 303.600 C 271.067 303.600,271.200 303.467,271.200 302.400 C 271.200 301.333,271.333 301.200,272.400 301.200 C 273.467 301.200,273.600 301.067,273.600 300.000 C 273.600 299.014,273.764 298.800,274.520 298.800 C 275.933 298.800,276.400 298.034,276.400 295.720 C 276.400 293.631,276.418 293.600,277.600 293.600 L 278.800 293.600 278.800 275.774 C 278.800 257.516,278.710 256.400,277.236 256.400 C 276.746 256.400,276.423 256.017,276.271 255.254 C 276.031 254.056,274.951 253.600,272.350 253.600 C 271.339 253.600,271.200 253.455,271.200 252.400 L 271.200 251.200 248.664 251.200 L 226.128 251.200 225.699 250.257 C 225.098 248.938,223.990 248.800,213.983 248.800 C 204.393 248.800,204.000 248.857,204.000 250.243 C 204.000 251.790,201.306 251.656,201.127 250.100 L 201.000 249.000 195.200 248.931 C 192.010 248.893,188.797 249.038,188.059 249.253 M141.688 251.672 C 141.310 252.050,141.200 261.378,141.200 292.880 L 141.200 333.600 150.002 333.600 L 158.804 333.600 158.702 292.500 L 158.600 251.400 150.388 251.292 C 144.337 251.213,142.047 251.313,141.688 251.672 M232.545 261.855 C 233.125 262.435,233.600 263.065,233.600 263.255 C 233.600 263.445,234.860 263.600,236.400 263.600 C 238.943 263.600,239.200 263.674,239.200 264.409 C 239.200 264.883,239.613 265.406,240.200 265.673 L 241.200 266.128 241.200 293.431 C 241.200 322.573,241.229 321.971,239.859 321.709 C 239.187 321.581,238.837 321.800,238.487 322.568 L 238.017 323.600 227.019 323.600 L 216.021 323.600 215.463 322.500 C 215.094 321.773,214.814 319.165,214.636 314.800 L 214.367 308.200 215.364 307.138 C 216.502 305.927,216.801 305.867,226.000 305.000 C 235.264 304.126,235.206 304.149,236.017 301.137 C 236.426 299.617,236.531 299.526,237.627 299.745 L 238.800 299.980 238.800 296.990 C 238.800 293.707,238.494 293.403,236.400 294.600 C 235.219 295.275,217.155 295.467,215.459 294.822 C 213.767 294.179,212.917 286.930,212.715 271.400 C 212.562 259.667,211.500 260.800,222.642 260.800 L 231.491 260.800 232.545 261.855 " stroke="none" fill="#1b1c1c" fill-rule="evenodd"></path><path id="path3" d="M43.154 129.900 C 42.669 131.151,43.205 133.147,44.457 134.754 C 44.866 135.279,45.200 136.002,45.200 136.361 C 45.200 136.720,45.623 137.641,46.141 138.407 C 46.658 139.173,47.302 140.477,47.573 141.304 C 47.843 142.131,48.314 143.057,48.619 143.361 C 48.923 143.666,49.625 144.880,50.177 146.058 C 50.729 147.236,51.365 148.470,51.591 148.800 C 51.816 149.130,52.374 150.210,52.830 151.200 C 53.286 152.190,54.348 154.260,55.190 155.800 C 56.032 157.340,57.006 159.230,57.356 160.000 C 57.705 160.770,58.169 161.670,58.385 162.000 C 59.087 163.070,62.800 170.636,62.813 171.023 C 62.896 173.497,66.464 172.763,67.154 170.130 C 67.375 169.289,67.686 168.060,67.846 167.400 C 68.005 166.740,68.529 165.390,69.011 164.400 C 69.493 163.410,70.124 161.700,70.413 160.600 C 70.703 159.500,71.163 158.240,71.436 157.800 C 71.709 157.360,72.217 156.024,72.565 154.832 C 72.913 153.639,73.471 152.245,73.806 151.734 C 74.141 151.223,74.700 149.679,75.048 148.302 C 75.396 146.926,75.996 145.260,76.382 144.600 C 76.768 143.940,77.392 142.265,77.769 140.877 C 78.146 139.489,78.828 137.721,79.283 136.948 C 80.198 135.398,80.375 131.838,79.634 129.889 L 79.220 128.800 61.400 128.800 L 43.580 128.800 43.154 129.900 M40.630 160.900 C 40.231 161.883,40.045 166.783,39.870 181.000 C 39.331 224.802,38.792 232.440,36.200 232.983 C 34.592 233.319,28.135 233.531,27.699 233.261 C 27.452 233.109,27.063 232.492,26.835 231.892 C 25.814 229.207,23.122 230.828,23.960 233.624 C 24.775 236.345,22.468 236.188,63.487 236.322 L 100.773 236.445 101.030 235.423 C 101.555 233.331,98.609 232.424,91.173 232.387 C 86.267 232.363,86.526 233.980,86.007 200.200 C 85.489 166.468,85.511 167.007,84.590 165.989 C 83.744 165.054,83.368 165.439,82.430 168.200 C 82.131 169.080,81.552 170.228,81.144 170.752 C 80.736 171.276,80.217 172.393,79.991 173.234 C 79.764 174.076,79.300 175.043,78.959 175.384 C 78.618 175.725,78.036 176.865,77.665 177.917 C 77.295 178.969,76.588 180.343,76.096 180.969 C 75.603 181.595,75.200 182.408,75.200 182.776 C 75.200 183.143,74.685 184.256,74.055 185.249 C 73.425 186.242,72.684 187.739,72.408 188.576 C 70.644 193.922,69.418 195.161,65.575 195.483 C 60.677 195.894,58.569 195.127,57.762 192.639 C 57.398 191.518,56.778 190.240,56.386 189.800 C 55.993 189.360,55.479 188.280,55.244 187.400 C 55.010 186.520,54.392 185.170,53.872 184.400 C 53.352 183.630,52.604 182.145,52.209 181.100 C 51.814 180.055,51.365 179.200,51.210 179.200 C 51.055 179.200,50.686 178.435,50.389 177.500 C 50.093 176.565,49.521 175.317,49.117 174.726 C 48.713 174.136,48.139 172.962,47.842 172.118 C 47.544 171.274,46.828 169.887,46.250 169.036 C 45.673 168.185,45.200 167.179,45.200 166.800 C 45.200 166.421,44.764 165.469,44.231 164.684 C 43.698 163.899,42.898 162.434,42.454 161.428 C 41.491 159.252,41.321 159.203,40.630 160.900 " stroke="none" fill="#04ce04" fill-rule="evenodd"></path><path id="path4" d="M375.385 192.606 C 374.094 194.179,371.741 194.774,366.744 194.792 C 362.710 194.806,362.622 194.990,362.476 203.719 C 362.303 214.011,363.195 215.568,369.283 215.591 C 371.975 215.602,373.600 217.515,373.600 220.675 C 373.600 224.857,372.448 225.752,367.175 225.667 C 362.983 225.600,362.139 225.918,361.934 227.644 C 361.679 229.788,362.316 230.000,368.994 230.000 C 377.636 230.000,377.690 229.932,377.761 219.012 L 377.800 213.000 376.269 212.252 C 375.428 211.841,373.375 211.352,371.709 211.165 C 367.182 210.657,366.654 210.036,366.905 205.507 C 367.037 203.122,367.320 201.676,367.798 200.948 L 368.496 199.881 373.661 200.128 L 378.826 200.375 378.713 195.888 C 378.579 190.555,377.744 189.732,375.385 192.606 M322.877 195.531 C 322.365 196.313,322.238 199.056,322.080 212.770 L 321.892 229.079 322.835 229.740 C 323.586 230.266,324.757 230.399,328.589 230.394 C 337.295 230.383,337.169 230.646,337.301 212.276 L 337.400 198.447 335.833 196.838 C 334.078 195.036,333.466 194.884,327.244 194.707 C 323.695 194.606,323.453 194.651,322.877 195.531 M344.721 195.723 C 343.554 196.805,343.124 200.019,342.381 213.200 C 342.140 217.490,341.685 222.368,341.371 224.040 C 340.440 228.998,340.584 229.600,342.835 230.136 C 344.714 230.584,345.277 229.707,345.641 225.765 C 346.359 217.978,347.552 216.121,350.766 217.783 C 352.097 218.471,352.317 219.315,352.671 225.101 C 352.938 229.461,353.077 229.750,355.085 230.131 C 357.849 230.654,358.086 228.535,356.380 218.581 C 355.963 216.150,355.436 211.740,355.208 208.781 C 354.138 194.860,354.110 194.800,348.685 194.800 C 346.139 194.800,345.575 194.931,344.721 195.723 " stroke="none" fill="#e2dbcc" fill-rule="evenodd"></path></g></svg>